# xmcd
# 
# Track frame offsets:
#     182
#     16300
#     29717
#     43002
#     56242
#     69882
#     88352
#     103880
#     120767
#     135905
#     148272
#     164712
#     184702
#     198635
#     214517
#     229577
#     246062
#     261400
#     277792
#     291200
#     303027
#     321512
# 
# Disc length: 4434
# 
# Revision: 3
# Processed by: cddbd v1.5.2PL0 Copyright (c) Steve Scherf et al.
# Submitted via: BonkEnc v1.0.8
# 
DISCID=49115016
DTITLE=Tião Carreiro and Pardinho - Dose Dupla Volume 9
DYEAR=1996
DGENRE=Country
TTITLE0=Última Viagem
TTITLE1=Rio Preto de Luto
TTITLE2=Boi "Sete Ouro"
TTITLE3=Rei do Gado
TTITLE4=O Mineiro e o Italiano
TTITLE5=Padecimento
TTITLE6=Preto Inocente
TTITLE7=Catimbau
TTITLE8=Boi Cigano
TTITLE9=A Viola e o Violeiro
TTITLE10=Terra Roxa
TTITLE11=Exemplo de Humildade
TTITLE12=Pousada de Boiadeiro
TTITLE13=Viola Vermelha
TTITLE14=Herói Sem Medalha
TTITLE15=O Milagre da Vela
TTITLE16=Arreio de Prata
TTITLE17=Fazenda Caioçara
TTITLE18=Dever do Policial
TTITLE19=Saudosa Vida de Peão
TTITLE20=Mineiro do Pé Quente
TTITLE21=Boi Veludo
EXTD=YEAR: 1996
EXTT0=
EXTT1=
EXTT2=
EXTT3=
EXTT4=
EXTT5=
EXTT6=
EXTT7=
EXTT8=
EXTT9=
EXTT10=
EXTT11=
EXTT12=
EXTT13=
EXTT14=
EXTT15=
EXTT16=
EXTT17=
EXTT18=
EXTT19=
EXTT20=
EXTT21=
PLAYORDER=
